<svg xmlns="http://www.w3.org/2000/svg" viewBox="0 0 451.98 412.68"><defs><style>.cls-1{fill:#009fe3;}</style></defs><g id="Layer_2" data-name="Layer 2"><g id="Layer_1-2" data-name="Layer 1"><path class="cls-1" d="M82.72,59h4Q249,59,411.19,59c14.79,0,26.57,5.68,34.7,18.07a35.44,35.44,0,0,1,5.46,26.65c-7.2,40.21-14.06,80.49-21.08,120.74-2.86,16.45-18,29.86-34.83,30.85-2,.11-4,.12-5.93.12H117.74a14.89,14.89,0,0,0,0,2.34c1.2,6.86,2.45,13.71,3.67,20.57a19.28,19.28,0,0,0,18.78,16.41c1.22,0,2.45,0,3.67,0H409.53c1.32,0,2.64,0,4,.05a9.76,9.76,0,0,1,.27,19.48c-1.22.11-2.45.09-3.67.09H140.77c-18.87,0-35-12.94-38.41-31.52-4.92-26.37-9.45-52.82-14.11-79.23q-12-68.15-24-136.28C62.4,57.15,60.58,47,58.81,36.75s-9.54-17-20.07-17.07c-9.7-.07-19.41,0-29.11-.06A9.54,9.54,0,0,1,.27,12.07,9.65,9.65,0,0,1,5.15,1.31,10.62,10.62,0,0,1,9.73.08C20,0,30.27,0,40.53.09c17.34.22,34.64,13.42,37.54,34C79.23,42.33,81.11,50.51,82.72,59Zm3.6,19.66c.21,1.52.33,2.62.52,3.7q3.21,18.22,6.43,36.43,10,56.74,19.91,113.49c.51,2.93,1.6,3.67,4.53,3.67q135.93-.15,271.87-.11c1,0,2.07,0,3.11,0,9.86-.57,16.93-6.81,18.7-16.51.73-4,1.42-8,2.12-12q9.25-52.71,18.48-105.42c2.27-13-6.62-23.24-20.19-23.24q-161.08,0-322.18,0Z"/><path class="cls-1" d="M167.2,412.68a39.29,39.29,0,1,1,39.22-39.4A39.37,39.37,0,0,1,167.2,412.68Zm19.58-39.22a19.62,19.62,0,1,0-19.61,19.62A19.64,19.64,0,0,0,186.78,373.46Z"/><path class="cls-1" d="M373.64,412.68a39.29,39.29,0,1,1,39.26-39.4A39.38,39.38,0,0,1,373.64,412.68Zm19.58-39.22a19.65,19.65,0,0,0-39.3-.25,19.65,19.65,0,1,0,39.3.25Z"/></g></g></svg>