<svg id="Layer_1" data-name="Layer 1" xmlns="http://www.w3.org/2000/svg" viewBox="0 0 418.19 179.76"><defs><style>.cls-1{fill:#009d42;}.cls-2,.cls-4{fill:#07597f;}.cls-2{opacity:0.3;}.cls-3{fill:#008f5b;opacity:0.44;}.cls-4{opacity:0.4;}.cls-5{fill:none;stroke:#fff;stroke-miterlimit:10;stroke-width:0.61px;opacity:0.7;}</style></defs><rect class="cls-1" x="-2.28" y="-80.87" width="492.53" height="472.27"/><rect class="cls-2" x="209.31" y="-80.87" width="354.65" height="401.54"/><polygon class="cls-3" points="488.7 329.28 818.77 375.59 -2.75 -78.46 488.7 -78.46 488.7 329.28"/><polygon class="cls-4" points="-2.55 -78.11 564.71 235.5 564.71 -78.42 -2.55 -78.11"/><path class="cls-5" d="M47.29-68-68.44,219.82H487.05L370.32-66.9,92.07-67.84Z"/><ellipse class="cls-5" cx="208.8" cy="38.16" rx="68.43" ry="29.55"/><path class="cls-5" d="M142.63,134.36c14.32-9.18,38.61-15.22,66.17-15.22s51.79,6,66.12,15.18"/><line class="cls-5" x1="4.52" y1="38.16" x2="412.59" y2="38.16"/><ellipse class="cls-5" cx="209.19" cy="38.29" rx="8.38" ry="3.5"/><ellipse class="cls-5" cx="210.06" cy="160.92" rx="11.4" ry="4.77"/><polyline class="cls-5" points="11.56 219.27 35.72 134.46 383.9 134.46 410.07 218.72"/></svg>