<svg xmlns="http://www.w3.org/2000/svg" viewBox="0 0 164.42 164.06"><defs><style>.cls-1{fill:#fff;}</style></defs><g id="Layer_2" data-name="Layer 2"><g id="Layer_1-2" data-name="Layer 1"><path class="cls-1" d="M82.21,0A82.21,82.21,0,0,0,65.12,162.63V104.08H45.4V79.61H65.12V67.28a33.69,33.69,0,0,1,2.32-12.45,32.84,32.84,0,0,1,6.28-10.28,30.17,30.17,0,0,1,9.49-6.91A27.06,27.06,0,0,1,94.8,35.12h19.73V59.53H94.8c-1.15,0-2.31.73-3.37,2.16A8.28,8.28,0,0,0,89.74,67V79.61h24.79v24.47H89.74v60A82.2,82.2,0,0,0,82.21,0Z"/></g></g></svg>