<svg xmlns="http://www.w3.org/2000/svg" viewBox="0 0 141.29 141.14"><defs><style>.cls-1{fill:#cd1719;}</style></defs><g id="Layer_2" data-name="Layer 2"><g id="Layer_1-2" data-name="Layer 1"><path class="cls-1" d="M139.42,14.49a24,24,0,0,0-5-7.57,24.31,24.31,0,0,0-7.57-5.09A23.06,23.06,0,0,0,117.69,0H23.56a22.57,22.57,0,0,0-9.14,1.83,23.89,23.89,0,0,0-7.5,5.09,23.64,23.64,0,0,0-5.09,7.57A23.06,23.06,0,0,0,0,23.6v93.95a22.9,22.9,0,0,0,1.83,9.18,24.2,24.2,0,0,0,12.59,12.59,22.57,22.57,0,0,0,9.14,1.82H70.65V88.19H53V66.28H70.65v-11a30.27,30.27,0,0,1,2-11.19,29.33,29.33,0,0,1,5.63-9.18,26.47,26.47,0,0,1,8.5-6.21,24.33,24.33,0,0,1,10.36-2.26h17.68V48.31H97.19a4,4,0,0,0-3,1.94A7.29,7.29,0,0,0,92.67,55v11.3h22.2V88.19H92.67v52.95h25a23,23,0,0,0,9.11-1.82,23.75,23.75,0,0,0,12.62-12.59,22.27,22.27,0,0,0,1.87-9.18V23.6A22.41,22.41,0,0,0,139.42,14.49Z"/></g></g></svg>