<svg xmlns="http://www.w3.org/2000/svg" viewBox="0 0 142.91 143.01"><defs><style>.cls-1{fill:#cd1719;}</style></defs><g id="Layer_2" data-name="Layer 2"><g id="Layer_1-2" data-name="Layer 1"><path class="cls-1" d="M142.1,107c-1.95,20.31-19.49,35.61-40.13,35.86q-30.45.38-60.9,0a41.55,41.55,0,0,1-41-41.55q-.15-29.86,0-59.73A41.62,41.62,0,0,1,41.53.08Q71.4-.1,101.26.08a41.66,41.66,0,0,1,41.6,41.36c.11,10.14,0,20.3,0,30.45C142.69,71.89,143.22,95.37,142.1,107ZM71.71,11c-9.75,0-19.5,0-29.26,0C24.24,11.05,11,24.23,11,42.45q0,29.05,0,58.12c0,18.15,13.31,31.37,31.54,31.4q29.06,0,58.12,0c17.91,0,31.25-13.37,31.29-31.29q.07-29.27,0-58.52c0-17.88-13.4-31.11-31.38-31.16C91,11,81.33,11,71.71,11Z"/><path class="cls-1" d="M109.85,71.5a38.5,38.5,0,0,1-38.5,38.35c-21.2-.14-38.5-17.57-38.3-38.6S50.54,33,71.4,33.05A38.53,38.53,0,0,1,109.85,71.5ZM71.56,99.09A27.61,27.61,0,1,0,43.87,71.65,28,28,0,0,0,71.56,99.09Z"/><path class="cls-1" d="M115.51,22.08a5.67,5.67,0,0,1,5.32,5.59,5.39,5.39,0,0,1-5.57,5.22,5.1,5.1,0,0,1-5.18-5.45A5.47,5.47,0,0,1,115.51,22.08Z"/></g></g></svg>