<svg xmlns="http://www.w3.org/2000/svg" viewBox="0 0 164.42 164.42"><defs><style>.cls-1{fill:#fff;}</style></defs><g id="Layer_2" data-name="Layer 2"><g id="Layer_1-2" data-name="Layer 1"><path class="cls-1" d="M82.21,0a82.21,82.21,0,1,0,82.21,82.21A82.21,82.21,0,0,0,82.21,0ZM61.67,129.42H41.3V58.1H61.67ZM60.56,46.67a12.79,12.79,0,0,1-18.14,0,12.64,12.64,0,0,1,0-17.93,12.82,12.82,0,0,1,18.14,0,12.66,12.66,0,0,1,0,17.93Zm73.28,82.75H113.43V86.18a6.07,6.07,0,0,0-.88-3.6,9.23,9.23,0,0,0-2.36-2.94,11.14,11.14,0,0,0-4.51-1.24c-1.78,0-5.58-.31-7.81.54s-4.82,2.75-4.82,4.92v45.56H72.64V58.1H93.05v3.11a29.55,29.55,0,0,1,13.54-2.53,28.4,28.4,0,0,1,13.21,3.48,26.77,26.77,0,0,1,10.11,10.15,27,27,0,0,1,3.93,13.87Z"/></g></g></svg>