<svg xmlns="http://www.w3.org/2000/svg" viewBox="0 0 706.56 177.41"><defs><style>.cls-1{fill:#009fe3;}.cls-2{fill:#fff;}</style></defs><g id="Layer_2" data-name="Layer 2"><g id="Layer_1-2" data-name="Layer 1"><rect class="cls-1" x="567.1" y="17.42" width="115.16" height="142.58" transform="translate(19.12 265.88) rotate(-24.39)"/><path d="M183.67,157.6c-17.27-.23-32.22-10-38.11-25.21-9-23.17,6-49,30.51-52.71,15.39-2.31,28.73,1.66,39.07,13.6,17.05,19.69,10.24,55.14-21.42,62.89A98.41,98.41,0,0,1,183.67,157.6Zm-20-39.32c0,11.1,7.63,19.89,18,20.81,10.72.94,19.57-5.92,21.52-16.72,1.74-9.64-2.6-19.11-10.61-23.11C178.92,92.46,163.59,102.54,163.63,118.28Z"/><path d="M96.43,157.6c-17.14-.28-32-9.95-37.88-24.93A39.09,39.09,0,0,1,89,79.68c15.48-2.34,28.88,1.74,39.16,13.84,17,20,9.65,55.29-21.92,62.71C103.07,157,99.72,157.16,96.43,157.6ZM76.5,118.2c0,11.1,7.52,19.9,17.91,20.88,10.7,1,19.61-5.85,21.59-16.63,1.77-9.63-2.54-19.13-10.51-23.15C91.88,92.43,76.53,102.44,76.5,118.2Z"/><path d="M347.57,116c2,1,4,1.76,5.74,2.81,11.62,6.85,12.69,21.52,2.21,30a28.75,28.75,0,0,1-17.67,6.44c-11.87.3-23.74.14-35.61.16a3.41,3.41,0,0,1-.67-.18V81.39a7.05,7.05,0,0,1,1.16-.2c10.65,0,21.29,0,31.94.15a27.41,27.41,0,0,1,14.08,4.15c11.56,7.07,11.9,21.67.68,29.28ZM321.8,139.93c4.07,0,7.91,0,11.76,0a9.32,9.32,0,0,0,2.95-.69,7.73,7.73,0,0,0,5.26-7.44c-.07-3.17-2.14-6.45-5.48-7-4.74-.76-9.6-.74-14.49-1Zm0-29.17c2.31,0,4.4,0,6.49,0a21.94,21.94,0,0,0,2.43-.1,8.07,8.07,0,0,0,7.24-7.32c.38-3.55-1.72-7.48-5.19-8.25s-7.27-.7-11-1Z"/><path d="M441.26,155.5H430.08c-2.65,0-5.3-.1-7.94,0a2.29,2.29,0,0,1-2.63-1.85,51,51,0,0,0-2.33-5.63,2.21,2.21,0,0,0-1.59-1.09q-12.82-.1-25.64,0a2.19,2.19,0,0,0-1.58,1.13c-.95,2-1.68,4.14-2.61,6.17-.23.51-.88,1.17-1.34,1.17-6.57.08-13.13.05-20,.05.35-.81.59-1.42.88-2l35.75-72.62a1,1,0,0,1,.09-.18L402.91,79a7.91,7.91,0,0,1,1.54,1.64c3.52,7,7,14.09,10.45,21.14q12.63,25.64,25.24,51.27C440.49,153.76,440.81,154.5,441.26,155.5ZM395,131.9h15.52c-2.55-6.25-5-12.29-7.7-18.84C400.14,119.6,397.63,125.63,395,131.9Z"/><path d="M20.2,98.11V112H46.46v15.54H20.16v27.81H0V81.29H51.31V98.11Z"/><path class="cls-2" d="M644.36,115l27.27-12.37,9,19.8-69.22,31.38c.17-1.44.22-2.56.44-3.63C616.1,130,620.5,110,624.62,89.82A137.18,137.18,0,0,0,627,71.44c.34-5.34-1.45-10.1-6.35-13.12a14.74,14.74,0,0,0-20.93,6.06c-2.16,4.17-3,9-4.6,14.18-2.42.09-5.71.22-9,.32s-6.44.19-10.18.3c0-3.05-.09-5.86.14-8.65,2-24.24,25.86-41.33,49.59-35.65A34.21,34.21,0,0,1,652.06,70.4c-.53,8.5-2.27,16.93-3.71,25.35C647.28,102,645.8,108.07,644.36,115Z"/><path d="M249,155.34V98.15H226.72V81.3h64.89V98.09H269.34v57.25Z"/><path d="M468.31,138.52h34.42v16.89H448.19V81.31h20.12Z"/><path d="M532.56,138.46H567v16.88H512.5v-74h20.06Z"/><path d="M277.59,62.42V30.84l-.41-.31a14.11,14.11,0,0,1-.85,1.18Q269.68,39.07,263,46.44c-1.13,1.26-1.38,1.25-2.53,0l-13.1-14.55c-.33-.37-.68-.73-1.26-1.34V62.39h-8.64v-53A18.8,18.8,0,0,1,239,10.77q11,12.17,22,24.35c.22.24.41.51.71.89L285.67,9.57l.39.22V62.42Z"/><path d="M464.48,63.69C449.43,63.61,438,51.88,438,36.62s11.73-27,26.85-26.88,26.48,11.94,26.38,27.47A26.28,26.28,0,0,1,464.48,63.69Zm18-26.93a46.49,46.49,0,0,0-.9-5.67c-2-6.93-6.32-11.64-13.49-13a16.39,16.39,0,0,0-17.24,6.66c-4.06,5.45-4.74,11.63-3,18.08A17.48,17.48,0,0,0,471.1,54.57C478,51.91,482.3,45,482.49,36.76Z"/><path d="M122.09,62.45h-8.73V41.7H89.54V62.43H80.83V11.12h8.64V33.9h23.85V11.09h8.77Z"/><path d="M140.75,41.55v13.3H166v7.57H131.86V11.13h33.38v7.49H140.77V33.93h21.57v7.62Z"/><path d="M304.84,34h21.68V41.6H304.86V54.83h25.31V62.4h-34.1V11.11h33.34v7.5H304.84Z"/><path d="M190.49,53.18l5.86-4.74c.48.62.87,1.14,1.29,1.65a16.66,16.66,0,0,0,18.21,5.6c4.09-1.35,6.23-4.91,5.16-8.56a6,6,0,0,0-3-3.74c-2.79-1.44-5.65-2.73-8.5-4-2.51-1.17-5.13-2.13-7.53-3.47-7.58-4.25-8.87-11.78-6-18.24a12.43,12.43,0,0,1,8.48-6.88A23.76,23.76,0,0,1,222,12.29a15,15,0,0,1,6,5.36l-2.67,2.22-2.81,2.28a13,13,0,0,0-6.71-4.53,14,14,0,0,0-9.12.26c-4.11,1.7-5.08,6.72-1.6,9.48a38.27,38.27,0,0,0,7.48,4.07c3.34,1.6,6.88,2.81,10.11,4.59,4.71,2.58,7.54,6.53,7.46,12.18a13.66,13.66,0,0,1-7.66,12.68,22.18,22.18,0,0,1-6.61,2.24c-8.36,1.38-16-.23-22.24-6.34C192.49,55.72,191.58,54.46,190.49,53.18Z"/><path d="M532.51,11.09v7.52H507.92V33.94h20.46v7.63H507.91V62.41h-8.78V11.09Z"/><path d="M48.81,18.65H32.67V11.12h41v7.53h-16V62.41H48.81Z"/><path d="M414.56,54.85v7.54H379.79V11.09h8.75V54.85Z"/><path d="M338.52,62.45V11.08h8.7V54.83h26v7.62Z"/></g></g></svg>