<svg xmlns="http://www.w3.org/2000/svg" viewBox="0 0 164.43 164.42"><defs><style>.cls-1{fill:#fff;}</style></defs><g id="Layer_2" data-name="Layer 2"><g id="Layer_1-2" data-name="Layer 1"><path class="cls-1" d="M82.21,0a82.21,82.21,0,1,0,82.22,82.21A82.21,82.21,0,0,0,82.21,0Zm43.9,64.32q.06,1.37.06,2.73c0,27.91-21.24,60.07-60.09,60.07a59.74,59.74,0,0,1-32.36-9.48,44,44,0,0,0,5,.3,42.4,42.4,0,0,0,26.23-9A21.14,21.14,0,0,1,45.25,94.23a20.9,20.9,0,0,0,4,.38,21.25,21.25,0,0,0,5.56-.74,21.13,21.13,0,0,1-16.94-20.7V72.9a21.09,21.09,0,0,0,9.57,2.64,21.15,21.15,0,0,1-6.54-28.18,59.94,59.94,0,0,0,43.52,22,21.13,21.13,0,0,1,36-19.25A42.58,42.58,0,0,0,133.8,45a21.28,21.28,0,0,1-9.28,11.68,42.34,42.34,0,0,0,12.13-3.33A43.13,43.13,0,0,1,126.11,64.32Z"/></g></g></svg>