<svg xmlns="http://www.w3.org/2000/svg" viewBox="0 0 141.29 141.41"><defs><style>.cls-1{fill:#cd1719;}</style></defs><g id="Layer_2" data-name="Layer 2"><g id="Layer_1-2" data-name="Layer 1"><path class="cls-1" d="M139.42,14.49a24,24,0,0,0-5-7.57,24.31,24.31,0,0,0-7.57-5.09A23.06,23.06,0,0,0,117.69,0H23.56a22.57,22.57,0,0,0-9.14,1.83,23.89,23.89,0,0,0-7.5,5.09,23.64,23.64,0,0,0-5.09,7.57A23.06,23.06,0,0,0,0,23.6v93.95a22.9,22.9,0,0,0,1.83,9.18,24.2,24.2,0,0,0,12.59,12.59,22.57,22.57,0,0,0,9.14,1.83H47.73a26.31,26.31,0,0,0,3.57.26h54.17a26.31,26.31,0,0,0,3.57-.26h8.65a23.06,23.06,0,0,0,9.11-1.83,23.75,23.75,0,0,0,12.62-12.59,22.27,22.27,0,0,0,1.87-9.18V23.6A22.41,22.41,0,0,0,139.42,14.49ZM113.2,50.85c0,.91.06,1.82.06,2.74,0,28.07-21.37,60.43-60.43,60.43a60.08,60.08,0,0,1-32.56-9.54,42.82,42.82,0,0,0,31.44-8.79A21.28,21.28,0,0,1,31.87,80.94a22,22,0,0,0,4,.38,21,21,0,0,0,5.59-.75,21.24,21.24,0,0,1-17-20.82v-.27a21.16,21.16,0,0,0,9.62,2.66,21.26,21.26,0,0,1-6.57-28.36A60.25,60.25,0,0,0,71.25,56a21.26,21.26,0,0,1,36.2-19.37,42.33,42.33,0,0,0,13.48-5.16A21.31,21.31,0,0,1,111.6,43.2a42.58,42.58,0,0,0,12.19-3.35A43.1,43.1,0,0,1,113.2,50.85Z"/></g></g></svg>